<svg width="556" height="93" viewBox="0 0 556 93" fill="none" xmlns="http://www.w3.org/2000/svg">
<path fill-rule="evenodd" clip-rule="evenodd" d="M89 2H0V91H89V2ZM73.2395 23.5684C74.1951 24.3653 74.9153 25.4015 75.3996 26.6779C75.8845 27.955 76.0758 29.3444 75.9731 30.8481C75.9064 31.8498 75.6079 33.0331 75.0815 34.3975C74.5552 35.7631 73.8537 37.1114 72.9773 38.4405C72.1009 39.7708 71.0881 40.9851 69.9373 42.0825C68.7864 43.1802 67.559 43.979 66.2563 44.4786C64.9414 44.9461 63.7862 44.9013 62.7912 44.3446C61.7972 43.7889 61.3004 42.778 61.305 41.3135C61.3127 40.4477 61.3596 39.5396 61.4457 38.5866C61.5311 37.6347 61.72 36.7087 62.0147 35.8076C61.3384 36.2913 60.6365 36.8236 59.9049 37.4047C59.1736 37.9851 58.4235 38.5909 57.6566 39.2236C57.569 41.0574 57.8728 42.8912 58.569 44.7253C59.2655 46.5594 60.0141 48.4104 60.8162 50.278C61.6182 52.146 62.32 54.0434 62.9207 55.9701C63.5204 57.897 63.6986 59.8636 63.453 61.8709C63.2038 64.0677 62.5615 66.2834 61.5258 68.5179C60.4888 70.7544 59.1774 72.8509 57.5887 74.8107C56 76.7698 54.1912 78.4953 52.1642 79.9864C50.1357 81.4752 48.0058 82.5738 45.774 83.2802C43.7494 83.9436 42.0171 84.1486 40.5773 83.8945C39.1377 83.6389 37.9578 83.0882 37.0393 82.2403C36.1203 81.3934 35.4383 80.3327 34.9925 79.059C34.5456 77.787 34.3149 76.4407 34.2992 75.0209C34.1741 71.544 34.9098 68.2231 36.5079 65.059C38.1067 61.8958 40.6062 59.0419 44.0066 56.4997C44.5274 56.3 45.1122 56.2163 45.7593 56.2494C46.4055 56.2828 46.9732 56.4023 47.4628 56.6085C47.9514 56.8156 48.2949 57.106 48.4927 57.4801C48.6902 57.854 48.5718 58.2566 48.1378 58.6854C46.0644 60.0058 44.3465 61.7243 42.9856 63.8399C41.6235 65.9569 40.8174 68.2086 40.566 70.5924C40.3901 71.8985 40.3947 73.041 40.5797 74.0197C40.7654 75.0003 41.1174 75.8032 41.6344 76.4295C42.1521 77.0556 42.8338 77.451 43.6794 77.6145C44.525 77.778 45.5527 77.6834 46.7628 77.3321C47.5376 77.111 48.395 76.5933 49.3371 75.7819C50.2789 74.9708 51.1389 73.9657 51.9152 72.7674C52.6918 71.5692 53.336 70.2449 53.8482 68.7907C54.3598 67.338 54.5576 65.8652 54.4378 64.3722C54.3531 63.1681 54.1063 61.7804 53.6983 60.2114C53.2891 58.6429 52.8303 57.018 52.3242 55.3365C51.8163 53.6562 51.335 51.9936 50.8788 50.3482C50.422 48.7052 50.1427 47.2082 50.0419 45.8588C48.0806 47.4735 46.1406 48.9779 44.225 50.368C42.3084 51.7595 40.4505 52.8383 38.6516 53.6025C37.3941 54.1232 36.1225 54.4599 34.8376 54.6153C34.5278 54.6536 34.2249 54.6741 33.9292 54.6792C33.1669 56.7807 32.3937 58.8068 31.6102 60.7567C30.4978 63.5284 29.4458 65.9671 28.4535 68.0722C27.9172 69.2163 27.2939 69.8582 26.5828 70.0001C25.8712 70.1421 25.2227 70.0059 24.6369 69.5931C24.0501 69.1803 23.6082 68.5808 23.3101 67.7948C23.0116 67.0089 23.0174 66.2386 23.3275 65.481C24.0682 63.6965 24.7624 61.8638 25.4113 59.9831C26.0593 58.1026 26.6738 56.2066 27.255 54.2956C25.6242 54.6207 24.1211 54.7665 22.7463 54.7307C21.37 54.6959 20.2566 54.3907 19.405 53.8183C18.9953 53.5252 18.7286 53.0928 18.6051 52.5213C18.4815 51.9491 18.4695 51.4014 18.5688 50.8756C18.6672 50.3494 18.8755 49.9141 19.1919 49.5668C19.5082 49.2205 19.8912 49.1492 20.3413 49.3518C20.7385 49.6116 21.26 49.8057 21.9057 49.9327C22.5514 50.0606 23.2488 50.13 24.0003 50.1424C24.7511 50.1537 25.5313 50.1175 26.3382 50.0328C27.1455 49.9487 27.9326 49.835 28.6988 49.6899C29.7925 46.0832 30.825 42.536 31.7966 39.049C32.7687 35.5627 33.7779 32.2488 34.8254 29.1086C35.199 28.0278 35.7881 27.2199 36.5935 26.6859C37.397 26.1519 38.1952 25.8929 38.9847 25.9091C39.774 25.9248 40.4383 26.2238 40.9764 26.8049C41.5126 27.387 41.6695 28.2651 41.4438 29.4389C41.024 31.7763 40.3798 34.4802 39.5123 37.551C38.6446 40.6231 37.6571 43.7971 36.5495 47.0718C38.7747 45.956 40.8783 44.5674 42.861 42.9067C44.843 41.246 46.6076 39.4814 48.1561 37.6122C49.7046 35.7443 50.9732 33.8512 51.9621 31.9332C52.9506 30.0164 53.5525 28.2107 53.7676 26.5147C54.6923 19.708 52.0377 16.9934 45.8072 18.3702C43.6311 18.8299 41.4763 19.6935 39.3458 20.9607C37.2135 22.2286 35.1549 23.759 33.1681 25.5527C31.181 27.3466 29.3005 29.3233 27.5278 31.4849C25.7538 33.6471 24.1168 35.8698 22.6135 38.1527C21.1106 40.4371 19.7818 42.69 18.6304 44.9132C17.4769 47.139 16.5493 49.1922 15.8461 51.0739C15.5066 51.6548 15.027 51.7924 14.4073 51.4853C13.7873 51.1806 13.1859 50.6785 12.6047 49.9818C12.0235 49.286 11.5727 48.4936 11.2544 47.6017C10.9349 46.7115 10.9164 45.9499 11.1986 45.3166C11.748 43.7173 12.6295 41.8608 13.8419 39.7442C15.0544 37.6291 16.5185 35.4176 18.2356 33.1076C19.9528 30.7993 21.8877 28.4721 24.0393 26.128C26.1902 23.7832 28.4948 21.5965 30.9522 19.5651C33.4091 17.5354 35.9683 15.7477 38.6287 14.2014C41.2889 12.6571 44.0095 11.5188 46.7931 10.7887C47.8848 10.5205 49.0621 10.304 50.3243 10.1384C51.5866 9.9732 52.8306 9.95603 54.0563 10.0861C55.2812 10.2165 56.4487 10.4902 57.5587 10.9084C58.6698 11.327 59.6348 11.9795 60.4563 12.8636C61.2773 13.7497 61.8944 14.8824 62.3058 16.2624C62.7174 17.6427 62.8321 19.3232 62.6522 21.3056C62.5523 22.3147 62.3808 23.3125 62.1463 24.2987C63.1227 23.7227 64.0771 23.2555 65.008 22.898C66.755 22.1914 68.3247 21.9271 69.7171 22.1048C71.1095 22.2838 72.2838 22.772 73.2395 23.5684ZM71.0795 34.4684C71.2914 33.7496 71.4086 33.1233 71.43 32.5893C71.5438 30.333 71.0217 28.8356 69.8653 28.0968C68.7075 27.3584 67.0687 27.4907 64.9496 28.4907C62.7354 29.6404 61.0394 31.022 59.8616 32.6367C61.0291 32.0764 62.1927 31.6026 63.352 31.2135C64.5115 30.8251 65.6619 30.5627 66.8044 30.4247L66.9872 30.4665C67.3747 30.5059 67.6721 30.673 67.8778 30.9688C68.0835 31.2667 68.2049 31.6599 68.2427 32.1516C68.2798 32.6435 68.2126 33.2038 68.0406 33.8326C67.8684 34.4618 67.5703 35.1017 67.1462 35.7518C66.9511 36.1266 66.7707 36.411 66.602 36.6072C66.4336 36.8033 66.2499 37.0052 66.0483 37.2134C65.8474 37.4214 65.6321 37.6642 65.4004 37.9399C65.1697 38.2163 64.8724 38.6124 64.5074 39.1266C64.4377 39.8279 64.6335 40.2968 65.0966 40.5326C65.5589 40.7682 66.3519 40.5945 67.4751 40.0139C68.0365 39.7239 68.5465 39.2753 69.0065 38.6671C69.467 38.0596 69.8742 37.388 70.2295 36.6512C70.5841 35.9162 70.8671 35.1885 71.0795 34.4684Z" fill="#EDE9D0"/>
<mask id="path-2-inside-1_1_9" fill="white">
<path d="M97.76 91C97.3333 91 97.12 90.7867 97.12 90.36L97.376 2.424C97.376 2.08266 97.5467 1.91199 97.888 1.91199H122.464C130.315 1.91199 136.501 4.30133 141.024 9.07999C145.632 13.8587 147.936 20.344 147.936 28.536C147.936 34.5947 146.741 39.8427 144.352 44.28C141.963 48.7173 138.848 52.1307 135.008 54.52C131.168 56.9093 126.987 58.104 122.464 58.104H112.736V90.36C112.736 90.7867 112.523 91 112.096 91H97.76ZM112.736 42.616H122.464C125.195 42.616 127.541 41.336 129.504 38.776C131.552 36.1307 132.576 32.7173 132.576 28.536C132.576 25.208 131.68 22.4773 129.888 20.344C128.096 18.2107 125.621 17.144 122.464 17.144L112.736 17.272V42.616Z"/>
<path d="M156.132 91C155.791 91 155.62 90.7867 155.62 90.36L155.748 2.424C155.748 2.08266 155.961 1.91199 156.388 1.91199H170.596C171.023 1.91199 171.236 2.08266 171.236 2.424L171.108 37.24H190.308V2.424C190.308 2.08266 190.479 1.91199 190.82 1.91199H205.028C205.455 1.91199 205.668 2.08266 205.668 2.424L205.924 90.36C205.924 90.7867 205.711 91 205.284 91H190.948C190.521 91 190.308 90.7867 190.308 90.36V52.728H171.108V90.36C171.108 90.7867 170.937 91 170.596 91H156.132Z"/>
<path d="M217.01 91C216.583 91 216.37 90.7867 216.37 90.36L216.498 2.424C216.498 2.08266 216.669 1.91199 217.01 1.91199H231.346C231.687 1.91199 231.858 2.08266 231.858 2.424L231.986 90.36C231.986 90.7867 231.815 91 231.474 91H217.01Z"/>
<path d="M243.757 91C243.416 91 243.245 90.7867 243.245 90.36L243.373 2.55199C243.373 2.12533 243.586 1.91199 244.013 1.91199H258.221C258.648 1.91199 258.861 2.12533 258.861 2.55199L258.733 75.256H285.101C285.528 75.256 285.741 75.4693 285.741 75.896V90.36C285.741 90.7867 285.528 91 285.101 91H243.757Z"/>
<path d="M312.63 92.28C308.022 92.28 303.798 91.128 299.958 88.824C296.203 86.4347 293.174 83.32 290.87 79.48C288.651 75.5547 287.542 71.2453 287.542 66.552V60.664C287.542 60.2373 287.755 60.024 288.182 60.024H302.518C302.859 60.024 303.03 60.2373 303.03 60.664V66.552C303.03 69.368 303.969 71.8 305.846 73.848C307.723 75.8107 309.985 76.792 312.63 76.792C315.275 76.792 317.537 75.768 319.414 73.72C321.291 71.672 322.23 69.2827 322.23 66.552C322.23 63.3947 320.182 60.664 316.086 58.36C314.721 57.592 312.587 56.3973 309.686 54.776C306.785 53.1547 304.054 51.6187 301.494 50.168C296.801 47.4373 293.302 44.024 290.998 39.928C288.779 35.7467 287.67 31.0533 287.67 25.848C287.67 21.0693 288.822 16.8027 291.126 13.048C293.43 9.208 296.459 6.17866 300.214 3.96C304.054 1.74133 308.193 0.631996 312.63 0.631996C317.153 0.631996 321.291 1.784 325.046 4.088C328.886 6.30666 331.915 9.33599 334.134 13.176C336.438 16.9307 337.59 21.1547 337.59 25.848V36.344C337.59 36.6853 337.419 36.856 337.078 36.856H322.742C322.401 36.856 322.23 36.6853 322.23 36.344L322.102 25.848C322.102 22.8613 321.163 20.4293 319.286 18.552C317.409 16.6747 315.19 15.736 312.63 15.736C309.985 15.736 307.723 16.76 305.846 18.808C303.969 20.7707 303.03 23.1173 303.03 25.848C303.03 28.664 303.627 31.0107 304.822 32.888C306.017 34.7653 308.193 36.5573 311.35 38.264C311.777 38.52 312.587 38.9893 313.782 39.672C315.062 40.2693 316.427 40.9947 317.878 41.848C319.329 42.616 320.609 43.2987 321.718 43.896C322.913 44.4933 323.638 44.8773 323.894 45.048C328.161 47.4373 331.531 50.3813 334.006 53.88C336.481 57.2933 337.718 61.5173 337.718 66.552C337.718 71.416 336.566 75.8107 334.262 79.736C332.043 83.576 329.014 86.648 325.174 88.952C321.419 91.1707 317.238 92.28 312.63 92.28Z"/>
<path d="M358.795 91C358.454 91 358.283 90.7867 358.283 90.36V17.4H341.643C341.216 17.4 341.003 17.1867 341.003 16.76L341.131 2.424C341.131 2.08266 341.302 1.91199 341.643 1.91199H390.283C390.71 1.91199 390.923 2.08266 390.923 2.424V16.76C390.923 17.1867 390.752 17.4 390.411 17.4H373.643L373.771 90.36C373.771 90.7867 373.6 91 373.259 91H358.795Z"/>
<path d="M387.018 90.36L402.89 2.424C402.975 2.08266 403.189 1.91199 403.53 1.91199H422.09C422.431 1.91199 422.645 2.08266 422.73 2.424L437.962 90.36C438.047 90.7867 437.877 91 437.45 91H423.242C422.901 91 422.687 90.7867 422.602 90.36L421.194 81.016H403.786L402.378 90.36C402.293 90.7867 402.079 91 401.738 91H387.53C387.189 91 387.018 90.7867 387.018 90.36ZM406.346 67.32H418.634L413.386 31.352L412.618 26.616L412.106 31.352L406.346 67.32Z"/>
<path d="M467.047 92.28C462.354 92.28 458.087 91.128 454.247 88.824C450.492 86.4347 447.506 83.2773 445.287 79.352C443.068 75.4267 441.959 71.032 441.959 66.168L442.087 26.232C442.087 21.5387 443.154 17.272 445.287 13.432C447.506 9.50667 450.492 6.392 454.247 4.088C458.087 1.69866 462.354 0.503998 467.047 0.503998C471.74 0.503998 475.964 1.656 479.719 3.96C483.474 6.26399 486.46 9.37866 488.679 13.304C490.898 17.144 492.007 21.4533 492.007 26.232V32.12C492.007 32.4613 491.836 32.632 491.495 32.632H477.159C476.818 32.632 476.647 32.4613 476.647 32.12V26.232C476.647 23.416 475.708 20.984 473.831 18.936C472.039 16.888 469.778 15.864 467.047 15.864C463.975 15.864 461.628 16.9307 460.007 19.064C458.386 21.112 457.575 23.5013 457.575 26.232V66.168C457.575 69.3253 458.471 71.8853 460.263 73.848C462.14 75.8107 464.402 76.792 467.047 76.792C469.778 76.792 472.039 75.7253 473.831 73.592C475.708 71.3733 476.647 68.8987 476.647 66.168V60.28C476.647 59.9387 476.818 59.768 477.159 59.768H491.623C491.964 59.768 492.135 59.9387 492.135 60.28V66.168C492.135 71.032 490.983 75.4267 488.679 79.352C486.46 83.2773 483.474 86.4347 479.719 88.824C475.964 91.128 471.74 92.28 467.047 92.28Z"/>
<path d="M502.007 91C501.666 91 501.495 90.7867 501.495 90.36L501.751 2.55199C501.751 2.12533 501.922 1.91199 502.263 1.91199H516.599C516.94 1.91199 517.111 2.12533 517.111 2.55199V32.888L537.207 2.424C537.463 2.08266 537.762 1.91199 538.103 1.91199H552.823C553.164 1.91199 553.25 2.08266 553.079 2.424L530.935 37.752L555.767 90.488C555.938 90.8293 555.724 91 555.127 91H539.511C539.084 91 538.828 90.8293 538.743 90.488L521.463 52.856L516.983 59.896V90.36C516.983 90.7867 516.812 91 516.471 91H502.007Z"/>
</mask>
<path d="M97.76 91C97.3333 91 97.12 90.7867 97.12 90.36L97.376 2.424C97.376 2.08266 97.5467 1.91199 97.888 1.91199H122.464C130.315 1.91199 136.501 4.30133 141.024 9.07999C145.632 13.8587 147.936 20.344 147.936 28.536C147.936 34.5947 146.741 39.8427 144.352 44.28C141.963 48.7173 138.848 52.1307 135.008 54.52C131.168 56.9093 126.987 58.104 122.464 58.104H112.736V90.36C112.736 90.7867 112.523 91 112.096 91H97.76ZM112.736 42.616H122.464C125.195 42.616 127.541 41.336 129.504 38.776C131.552 36.1307 132.576 32.7173 132.576 28.536C132.576 25.208 131.68 22.4773 129.888 20.344C128.096 18.2107 125.621 17.144 122.464 17.144L112.736 17.272V42.616Z" fill="#EDE9D0"/>
<path d="M156.132 91C155.791 91 155.62 90.7867 155.62 90.36L155.748 2.424C155.748 2.08266 155.961 1.91199 156.388 1.91199H170.596C171.023 1.91199 171.236 2.08266 171.236 2.424L171.108 37.24H190.308V2.424C190.308 2.08266 190.479 1.91199 190.82 1.91199H205.028C205.455 1.91199 205.668 2.08266 205.668 2.424L205.924 90.36C205.924 90.7867 205.711 91 205.284 91H190.948C190.521 91 190.308 90.7867 190.308 90.36V52.728H171.108V90.36C171.108 90.7867 170.937 91 170.596 91H156.132Z" fill="#EDE9D0"/>
<path d="M217.01 91C216.583 91 216.37 90.7867 216.37 90.36L216.498 2.424C216.498 2.08266 216.669 1.91199 217.01 1.91199H231.346C231.687 1.91199 231.858 2.08266 231.858 2.424L231.986 90.36C231.986 90.7867 231.815 91 231.474 91H217.01Z" fill="#EDE9D0"/>
<path d="M243.757 91C243.416 91 243.245 90.7867 243.245 90.36L243.373 2.55199C243.373 2.12533 243.586 1.91199 244.013 1.91199H258.221C258.648 1.91199 258.861 2.12533 258.861 2.55199L258.733 75.256H285.101C285.528 75.256 285.741 75.4693 285.741 75.896V90.36C285.741 90.7867 285.528 91 285.101 91H243.757Z" fill="#EDE9D0"/>
<path d="M312.63 92.28C308.022 92.28 303.798 91.128 299.958 88.824C296.203 86.4347 293.174 83.32 290.87 79.48C288.651 75.5547 287.542 71.2453 287.542 66.552V60.664C287.542 60.2373 287.755 60.024 288.182 60.024H302.518C302.859 60.024 303.03 60.2373 303.03 60.664V66.552C303.03 69.368 303.969 71.8 305.846 73.848C307.723 75.8107 309.985 76.792 312.63 76.792C315.275 76.792 317.537 75.768 319.414 73.72C321.291 71.672 322.23 69.2827 322.23 66.552C322.23 63.3947 320.182 60.664 316.086 58.36C314.721 57.592 312.587 56.3973 309.686 54.776C306.785 53.1547 304.054 51.6187 301.494 50.168C296.801 47.4373 293.302 44.024 290.998 39.928C288.779 35.7467 287.67 31.0533 287.67 25.848C287.67 21.0693 288.822 16.8027 291.126 13.048C293.43 9.208 296.459 6.17866 300.214 3.96C304.054 1.74133 308.193 0.631996 312.63 0.631996C317.153 0.631996 321.291 1.784 325.046 4.088C328.886 6.30666 331.915 9.33599 334.134 13.176C336.438 16.9307 337.59 21.1547 337.59 25.848V36.344C337.59 36.6853 337.419 36.856 337.078 36.856H322.742C322.401 36.856 322.23 36.6853 322.23 36.344L322.102 25.848C322.102 22.8613 321.163 20.4293 319.286 18.552C317.409 16.6747 315.19 15.736 312.63 15.736C309.985 15.736 307.723 16.76 305.846 18.808C303.969 20.7707 303.03 23.1173 303.03 25.848C303.03 28.664 303.627 31.0107 304.822 32.888C306.017 34.7653 308.193 36.5573 311.35 38.264C311.777 38.52 312.587 38.9893 313.782 39.672C315.062 40.2693 316.427 40.9947 317.878 41.848C319.329 42.616 320.609 43.2987 321.718 43.896C322.913 44.4933 323.638 44.8773 323.894 45.048C328.161 47.4373 331.531 50.3813 334.006 53.88C336.481 57.2933 337.718 61.5173 337.718 66.552C337.718 71.416 336.566 75.8107 334.262 79.736C332.043 83.576 329.014 86.648 325.174 88.952C321.419 91.1707 317.238 92.28 312.63 92.28Z" fill="#EDE9D0"/>
<path d="M358.795 91C358.454 91 358.283 90.7867 358.283 90.36V17.4H341.643C341.216 17.4 341.003 17.1867 341.003 16.76L341.131 2.424C341.131 2.08266 341.302 1.91199 341.643 1.91199H390.283C390.71 1.91199 390.923 2.08266 390.923 2.424V16.76C390.923 17.1867 390.752 17.4 390.411 17.4H373.643L373.771 90.36C373.771 90.7867 373.6 91 373.259 91H358.795Z" fill="#EDE9D0"/>
<path d="M387.018 90.36L402.89 2.424C402.975 2.08266 403.189 1.91199 403.53 1.91199H422.09C422.431 1.91199 422.645 2.08266 422.73 2.424L437.962 90.36C438.047 90.7867 437.877 91 437.45 91H423.242C422.901 91 422.687 90.7867 422.602 90.36L421.194 81.016H403.786L402.378 90.36C402.293 90.7867 402.079 91 401.738 91H387.53C387.189 91 387.018 90.7867 387.018 90.36ZM406.346 67.32H418.634L413.386 31.352L412.618 26.616L412.106 31.352L406.346 67.32Z" fill="#EDE9D0"/>
<path d="M467.047 92.28C462.354 92.28 458.087 91.128 454.247 88.824C450.492 86.4347 447.506 83.2773 445.287 79.352C443.068 75.4267 441.959 71.032 441.959 66.168L442.087 26.232C442.087 21.5387 443.154 17.272 445.287 13.432C447.506 9.50667 450.492 6.392 454.247 4.088C458.087 1.69866 462.354 0.503998 467.047 0.503998C471.74 0.503998 475.964 1.656 479.719 3.96C483.474 6.26399 486.46 9.37866 488.679 13.304C490.898 17.144 492.007 21.4533 492.007 26.232V32.12C492.007 32.4613 491.836 32.632 491.495 32.632H477.159C476.818 32.632 476.647 32.4613 476.647 32.12V26.232C476.647 23.416 475.708 20.984 473.831 18.936C472.039 16.888 469.778 15.864 467.047 15.864C463.975 15.864 461.628 16.9307 460.007 19.064C458.386 21.112 457.575 23.5013 457.575 26.232V66.168C457.575 69.3253 458.471 71.8853 460.263 73.848C462.14 75.8107 464.402 76.792 467.047 76.792C469.778 76.792 472.039 75.7253 473.831 73.592C475.708 71.3733 476.647 68.8987 476.647 66.168V60.28C476.647 59.9387 476.818 59.768 477.159 59.768H491.623C491.964 59.768 492.135 59.9387 492.135 60.28V66.168C492.135 71.032 490.983 75.4267 488.679 79.352C486.46 83.2773 483.474 86.4347 479.719 88.824C475.964 91.128 471.74 92.28 467.047 92.28Z" fill="#EDE9D0"/>
<path d="M502.007 91C501.666 91 501.495 90.7867 501.495 90.36L501.751 2.55199C501.751 2.12533 501.922 1.91199 502.263 1.91199H516.599C516.94 1.91199 517.111 2.12533 517.111 2.55199V32.888L537.207 2.424C537.463 2.08266 537.762 1.91199 538.103 1.91199H552.823C553.164 1.91199 553.25 2.08266 553.079 2.424L530.935 37.752L555.767 90.488C555.938 90.8293 555.724 91 555.127 91H539.511C539.084 91 538.828 90.8293 538.743 90.488L521.463 52.856L516.983 59.896V90.36C516.983 90.7867 516.812 91 516.471 91H502.007Z" fill="#EDE9D0"/>
<path d="M97.76 91C97.3333 91 97.12 90.7867 97.12 90.36L97.376 2.424C97.376 2.08266 97.5467 1.91199 97.888 1.91199H122.464C130.315 1.91199 136.501 4.30133 141.024 9.07999C145.632 13.8587 147.936 20.344 147.936 28.536C147.936 34.5947 146.741 39.8427 144.352 44.28C141.963 48.7173 138.848 52.1307 135.008 54.52C131.168 56.9093 126.987 58.104 122.464 58.104H112.736V90.36C112.736 90.7867 112.523 91 112.096 91H97.76ZM112.736 42.616H122.464C125.195 42.616 127.541 41.336 129.504 38.776C131.552 36.1307 132.576 32.7173 132.576 28.536C132.576 25.208 131.68 22.4773 129.888 20.344C128.096 18.2107 125.621 17.144 122.464 17.144L112.736 17.272V42.616Z" stroke="#EDE9D0" stroke-width="2" mask="url(#path-2-inside-1_1_9)"/>
<path d="M156.132 91C155.791 91 155.62 90.7867 155.62 90.36L155.748 2.424C155.748 2.08266 155.961 1.91199 156.388 1.91199H170.596C171.023 1.91199 171.236 2.08266 171.236 2.424L171.108 37.24H190.308V2.424C190.308 2.08266 190.479 1.91199 190.82 1.91199H205.028C205.455 1.91199 205.668 2.08266 205.668 2.424L205.924 90.36C205.924 90.7867 205.711 91 205.284 91H190.948C190.521 91 190.308 90.7867 190.308 90.36V52.728H171.108V90.36C171.108 90.7867 170.937 91 170.596 91H156.132Z" stroke="#EDE9D0" stroke-width="2" mask="url(#path-2-inside-1_1_9)"/>
<path d="M217.01 91C216.583 91 216.37 90.7867 216.37 90.36L216.498 2.424C216.498 2.08266 216.669 1.91199 217.01 1.91199H231.346C231.687 1.91199 231.858 2.08266 231.858 2.424L231.986 90.36C231.986 90.7867 231.815 91 231.474 91H217.01Z" stroke="#EDE9D0" stroke-width="2" mask="url(#path-2-inside-1_1_9)"/>
<path d="M243.757 91C243.416 91 243.245 90.7867 243.245 90.36L243.373 2.55199C243.373 2.12533 243.586 1.91199 244.013 1.91199H258.221C258.648 1.91199 258.861 2.12533 258.861 2.55199L258.733 75.256H285.101C285.528 75.256 285.741 75.4693 285.741 75.896V90.36C285.741 90.7867 285.528 91 285.101 91H243.757Z" stroke="#EDE9D0" stroke-width="2" mask="url(#path-2-inside-1_1_9)"/>
<path d="M312.63 92.28C308.022 92.28 303.798 91.128 299.958 88.824C296.203 86.4347 293.174 83.32 290.87 79.48C288.651 75.5547 287.542 71.2453 287.542 66.552V60.664C287.542 60.2373 287.755 60.024 288.182 60.024H302.518C302.859 60.024 303.03 60.2373 303.03 60.664V66.552C303.03 69.368 303.969 71.8 305.846 73.848C307.723 75.8107 309.985 76.792 312.63 76.792C315.275 76.792 317.537 75.768 319.414 73.72C321.291 71.672 322.23 69.2827 322.23 66.552C322.23 63.3947 320.182 60.664 316.086 58.36C314.721 57.592 312.587 56.3973 309.686 54.776C306.785 53.1547 304.054 51.6187 301.494 50.168C296.801 47.4373 293.302 44.024 290.998 39.928C288.779 35.7467 287.67 31.0533 287.67 25.848C287.67 21.0693 288.822 16.8027 291.126 13.048C293.43 9.208 296.459 6.17866 300.214 3.96C304.054 1.74133 308.193 0.631996 312.63 0.631996C317.153 0.631996 321.291 1.784 325.046 4.088C328.886 6.30666 331.915 9.33599 334.134 13.176C336.438 16.9307 337.59 21.1547 337.59 25.848V36.344C337.59 36.6853 337.419 36.856 337.078 36.856H322.742C322.401 36.856 322.23 36.6853 322.23 36.344L322.102 25.848C322.102 22.8613 321.163 20.4293 319.286 18.552C317.409 16.6747 315.19 15.736 312.63 15.736C309.985 15.736 307.723 16.76 305.846 18.808C303.969 20.7707 303.03 23.1173 303.03 25.848C303.03 28.664 303.627 31.0107 304.822 32.888C306.017 34.7653 308.193 36.5573 311.35 38.264C311.777 38.52 312.587 38.9893 313.782 39.672C315.062 40.2693 316.427 40.9947 317.878 41.848C319.329 42.616 320.609 43.2987 321.718 43.896C322.913 44.4933 323.638 44.8773 323.894 45.048C328.161 47.4373 331.531 50.3813 334.006 53.88C336.481 57.2933 337.718 61.5173 337.718 66.552C337.718 71.416 336.566 75.8107 334.262 79.736C332.043 83.576 329.014 86.648 325.174 88.952C321.419 91.1707 317.238 92.28 312.63 92.28Z" stroke="#EDE9D0" stroke-width="2" mask="url(#path-2-inside-1_1_9)"/>
<path d="M358.795 91C358.454 91 358.283 90.7867 358.283 90.36V17.4H341.643C341.216 17.4 341.003 17.1867 341.003 16.76L341.131 2.424C341.131 2.08266 341.302 1.91199 341.643 1.91199H390.283C390.71 1.91199 390.923 2.08266 390.923 2.424V16.76C390.923 17.1867 390.752 17.4 390.411 17.4H373.643L373.771 90.36C373.771 90.7867 373.6 91 373.259 91H358.795Z" stroke="#EDE9D0" stroke-width="2" mask="url(#path-2-inside-1_1_9)"/>
<path d="M387.018 90.36L402.89 2.424C402.975 2.08266 403.189 1.91199 403.53 1.91199H422.09C422.431 1.91199 422.645 2.08266 422.73 2.424L437.962 90.36C438.047 90.7867 437.877 91 437.45 91H423.242C422.901 91 422.687 90.7867 422.602 90.36L421.194 81.016H403.786L402.378 90.36C402.293 90.7867 402.079 91 401.738 91H387.53C387.189 91 387.018 90.7867 387.018 90.36ZM406.346 67.32H418.634L413.386 31.352L412.618 26.616L412.106 31.352L406.346 67.32Z" stroke="#EDE9D0" stroke-width="2" mask="url(#path-2-inside-1_1_9)"/>
<path d="M467.047 92.28C462.354 92.28 458.087 91.128 454.247 88.824C450.492 86.4347 447.506 83.2773 445.287 79.352C443.068 75.4267 441.959 71.032 441.959 66.168L442.087 26.232C442.087 21.5387 443.154 17.272 445.287 13.432C447.506 9.50667 450.492 6.392 454.247 4.088C458.087 1.69866 462.354 0.503998 467.047 0.503998C471.74 0.503998 475.964 1.656 479.719 3.96C483.474 6.26399 486.46 9.37866 488.679 13.304C490.898 17.144 492.007 21.4533 492.007 26.232V32.12C492.007 32.4613 491.836 32.632 491.495 32.632H477.159C476.818 32.632 476.647 32.4613 476.647 32.12V26.232C476.647 23.416 475.708 20.984 473.831 18.936C472.039 16.888 469.778 15.864 467.047 15.864C463.975 15.864 461.628 16.9307 460.007 19.064C458.386 21.112 457.575 23.5013 457.575 26.232V66.168C457.575 69.3253 458.471 71.8853 460.263 73.848C462.14 75.8107 464.402 76.792 467.047 76.792C469.778 76.792 472.039 75.7253 473.831 73.592C475.708 71.3733 476.647 68.8987 476.647 66.168V60.28C476.647 59.9387 476.818 59.768 477.159 59.768H491.623C491.964 59.768 492.135 59.9387 492.135 60.28V66.168C492.135 71.032 490.983 75.4267 488.679 79.352C486.46 83.2773 483.474 86.4347 479.719 88.824C475.964 91.128 471.74 92.28 467.047 92.28Z" stroke="#EDE9D0" stroke-width="2" mask="url(#path-2-inside-1_1_9)"/>
<path d="M502.007 91C501.666 91 501.495 90.7867 501.495 90.36L501.751 2.55199C501.751 2.12533 501.922 1.91199 502.263 1.91199H516.599C516.94 1.91199 517.111 2.12533 517.111 2.55199V32.888L537.207 2.424C537.463 2.08266 537.762 1.91199 538.103 1.91199H552.823C553.164 1.91199 553.25 2.08266 553.079 2.424L530.935 37.752L555.767 90.488C555.938 90.8293 555.724 91 555.127 91H539.511C539.084 91 538.828 90.8293 538.743 90.488L521.463 52.856L516.983 59.896V90.36C516.983 90.7867 516.812 91 516.471 91H502.007Z" stroke="#EDE9D0" stroke-width="2" mask="url(#path-2-inside-1_1_9)"/>
</svg>
