<?xml version="1.0" encoding="utf-8"?>
<!-- Generator: Adobe Illustrator 28.2.0, SVG Export Plug-In . SVG Version: 6.00 Build 0)  -->
<svg version="1.1" id="Ebene_1" xmlns="http://www.w3.org/2000/svg" xmlns:xlink="http://www.w3.org/1999/xlink" x="0px" y="0px"
	 viewBox="0 0 1155.7 354.7" style="enable-background:new 0 0 1155.7 354.7;" xml:space="preserve">
<g>
	<path d="M217.6,8.5c4.3,1,5.9,4.2,8.3,7.7c11.8,17.2,20.2,36.8,35.9,51.2c3.7,3.4,5.4,8.3,7.9,12.7c2.4,4.2,4.8,8.4,9.5,10.5
		c2.2,1,2.2,3.1,2.4,5.1c0.7,8.3,1.8,8.9,9.2,11.8c2.9,1.1,3.3,5.5,3.5,8.8c0.1,2.3-0.5,4.3,2.9,4.5c1.6,0.1,1.2,1.8,1.2,2.8
		c-0.2,7.6,2,14.7,5.6,21c10.1,18.1,10.3,38.3,13.3,57.9c0.9,6-1.2,11.8-4.2,17.2c-6.3,11.4-12.3,22.9-12.9,36.3
		c-0.1,2.1-1.3,2.4-2.9,3.2c-2.9,1.4-6.5,2.6-6.9,6.8c-0.1,0.9-0.4,1.5-1.4,1.8c-6.2,2-8.9,6.8-10.8,12.5c-1.3,3.9-4.1,6.9-7.3,9.4
		c-17,13.2-34.2,25.9-54.9,32.8c-3.8,1.3-8.2,2.3-10.8,5c-6.6,7-16,4.9-23.7,8.1c-8,3.3-16.8,3.7-25.4,4.8
		c-14.9,1.9-29.9,2.3-44.8,0.6c-22.5-2.7-44.9-6.3-62.5-22.6c-10.9-10.1-18.7-22.4-26.4-34.9C14,269.9,8.4,255.4,7.6,239
		c-0.4-8.1-2.8-16-4.2-24c-0.9-5-0.6-10,1.4-14.7c0.9-2.2,0.3-4.3,0.4-6.4c0.5-8.3,1.5-16.6,4.8-24.4c2-4.8,1.8-10.1,3.1-15.1
		c4.8-18.2,14.9-33.6,25.6-48.7c13.5-19,30.4-34.8,48-49.9c3.5-3,7.7-5.2,11.5-7.9c2.6-1.9,5.1-0.2,7.7-0.1c3.4,0,3.1,2.4,4.1,4.7
		c2.6,6.1,5.3,12.4,13.3,13.4c0.9,0.1,1.7,0.4,1.8,1.4c0.9,7.5,6.3,13.1,8.4,20.1c3.5,11.6,2.1,15.9-7.6,23
		c-5.5,4-11.5,7.6-16.2,12.2c-5.6,5.3-13.6,6.5-18.2,13c-4.5,6.4-9.6,12.3-14.4,18.5c-4.8,6.2-9.8,12.2-14.1,18.7
		c-11.3,17.3-14.9,36.8-15.6,57c-0.8,24.2,19.1,46.1,43.5,47.5c13.8,0.8,27.6-0.2,41.4,1c1.4,0.1,2.9-0.4,4.4-0.8
		c5.9-1.6,11.8-3.4,18.1-3.3c2.3,0,4.7-0.4,6.9-1.2c19.4-7.4,39.4-13.4,57.2-24.5c2.9-1.8,7-2.9,6.9-7.7c0-0.4,0.4-1.2,0.7-1.2
		c9.7-1.1,11.6-11.1,18.1-15.8c2.2-1.6,3.5-4.4,4.8-6.9c5.8-11,5.6-22.8,4.7-34.6c-2.5-30.2-9.3-59.4-20-87.6c-3-8-9.4-14-16.4-19.7
		c-6.3-5.1-13.9-4.5-19.4-8.1c-4.7-3.1-8.5-1.8-12.7-2.5c-1.2-0.2-2.5-0.3-2.5-1.8c0-3.9-2.4-6.9-4.1-10c-2.5-4.6-1.9-9.3-0.9-14.1
		c1.6-7.6,4.9-14.9,4.9-22.9c0-1.8,0.9-2.2,2.5-2.3c6.4-0.3,12.1-2.9,18-4.8C208.3,8.5,213,8.5,217.6,8.5z"/>
	<path d="M356.3,62.7c7.1,0.1,14,0.5,21,0.1c4.6-0.3,5.6,1.5,5.6,5.7c-0.1,28.5,0,57.1-0.1,85.6c0,5,1,7,6.5,6.7
		c10-0.5,19.9,0,29.9-0.3c3.3,0,4.4,0.8,4.2,4.2c-0.5,6.5,2.6,14.7-1.2,19.1c-3.3,3.8-11.6,1.1-17.6,1.1
		c-16.1,0.3-32.2,0.1-48.3,0.3C356.3,144.5,356.3,103.6,356.3,62.7z"/>
	<path d="M1138.5,148.5c0.7-4.5-1.4-9.3,1.4-13.5c0,4.5,0,9.1,0,13.6C1139.5,148.5,1139,148.5,1138.5,148.5z"/>
	<path d="M194.9,93.1c-0.2,8.6,5.3,13.6,9.2,19.3c0.7,1.1,1.9,1.6,3,1.5c5.1-0.5,5.8,2.3,5.7,6.5c-0.1,2.2,0.7,4.6,1.6,6.7
		c7.1,16.8,6.4,34.4,5.7,52.1c-0.1,1.5,0.2,2.9,0.2,4.4c0,1,0.2,2.2-1.1,2.5c-8.2,1.8-12.3,8.5-17.1,14.2c-3.6,4.2-7.5,7.9-12.7,9.9
		c-1.2-0.8-0.8-1.9-0.7-2.8c0.1-3.6-1.5-3.5-4-2c-3.8,2.4-7.6,4.8-12,5.9c-11.6,3-20.6-2-27.8-10.4c-15.9-18.5-17.2-39.2-7.8-61.1
		c5.4-12.7,13.2-23.4,26.6-29c4.6-1.9,8.7-4.8,13-7.3c2.3-1.3,4.7-2.7,4.3-6c-0.1-1.1,0.4-2.3,1.6-1.7
		C187.2,98.1,190.7,95.4,194.9,93.1z"/>
	<path d="M866.3,107.3c7.6-11.3,16.5-16.4,28.2-15.1c13.5,1.4,23.6,11.9,24.4,28.2c1,20.3,0.4,40.9,0.5,61.2c0,2.6-0.8,3.8-3.5,3.5
		c-0.7-0.1-1.4,0-2,0c-6.5-0.4-15,2.7-19.1-1.1c-4.1-4-1.1-12.4-1.2-18.9c-0.3-9.3,0-18.7-0.1-27.9c0-3.1-0.4-6.3-1.4-9.4
		c-1.5-4.8-3.7-8.9-9.4-9.3c-5.9-0.4-10,2.5-12.5,7.5c-3.4,6.7-3.7,14-3.8,21.3c-0.3,10.9-0.3,21.8,0,32.7c0.1,4.1-1,5.6-5.3,5.3
		c-4.9-0.4-10-0.4-15,0c-4.2,0.3-5.5-1.1-5.3-5.3c0.3-18.7,0.1-37.2,0.1-55.9c0-20.9,0.3-41.7-0.1-62.7c-0.1-6.3,1.8-7.8,7.6-7.2
		c4.5,0.4,9.1,0.3,13.6,0c3.7-0.3,4.5,1.1,4.5,4.6C866.1,74.2,866.3,89.6,866.3,107.3z"/>
	<path d="M705.4,108.4c4.8-8.6,10.5-14,19.1-15.8c19.2-4,33.9,7.5,34.9,28.6c1,19.9,0.3,39.9,0.5,59.8c0,3.5-1.5,4.1-4.5,4
		c-5.7-0.1-11.3-0.3-17,0c-3.7,0.1-4.6-1.2-4.5-4.8c0.1-13.6,0.1-27.3,0-40.8c0-3.8-0.1-7.6-1.2-11.5c-1.4-4.8-3.4-9-9-9.7
		c-6.1-0.7-10.5,2.2-13.2,7.5c-3.4,6.7-3.5,14-3.7,21.3c-0.1,10.9-0.3,21.8,0,32.7c0.1,4.2-1.2,5.6-5.3,5.2
		c-6.7-0.7-15.7,2.9-19.5-1.5c-3.3-3.7-1.1-12.5-1.1-19.1c0-21.8,0.1-43.5-0.1-65.3c0-4,0.7-6,5.2-5.3c1.5,0.3,3.1,0,4.8,0
		C704.3,94.1,704.3,94.1,705.4,108.4z"/>
	<path d="M1018,150.4c0-9.3-0.3-18.5,0.1-27.9c0.1-4.8-0.8-6.8-6.3-6.5c-8.9,0.4-8.9,0-8.9-8.9c0-0.4,0-1,0-1.4
		c0-11.2,0-11.3,10.9-11.6c3.5,0,4.9-1,4.5-4.6c-0.3-2.5,0-5,0.1-7.5c1.1-22.2,14.4-33,36.7-29.9c5.6,0.8,8.2,2.6,6.8,8.5
		c-0.4,1.5-0.5,3.1-0.4,4.8c0.3,6.4-0.3,10.9-9.1,9.3c-5.9-1.1-11.9,12.8-8.5,18.4c1.4,2,3.7,1,5.6,1.1c12.4,0.3,12.4,0.1,12.4,12.3
		c0,1.6-0.1,3.1,0,4.8c0.4,3.7-0.7,5-4.8,5c-13.5,0.1-13.5,0.4-13.5,14c0,16.5-0.1,33.1,0.1,49.6c0,4.1-1,5.7-5.3,5.3
		c-6.7-0.7-15.4,2.9-19.5-1.4c-4-4-0.8-12.5-1.1-19.1C1017.9,159.9,1018,155.2,1018,150.4z"/>
	<path d="M825,119c-7.8-4.2-15.3-6.7-23.3-5.7c-3.4,0.4-7.1,1-7.9,5.2c-0.8,4.6,2.7,6.4,6.1,7.6c3.4,1.2,7,2.2,10.4,3.3
		c15.9,5,22.1,13.9,21,30.4c-1,14.7-9.1,24.1-24.4,26.4c-10.8,1.6-21.7,1.2-32.4-1.9c-3.5-1.1-4.9-2.3-4.2-6.1
		c0.7-4,0.7-8.2,0.5-12.3c-0.1-4.8,0.7-6.7,6-4.1c5.9,2.9,12.5,4.2,19.1,4.1c4.1-0.1,8.6-0.5,9.4-5.9c0.8-4.9-2.2-7.5-6.4-9.1
		c-3.4-1.2-6.8-2.5-10.2-3.7c-14.3-5-20-13.1-19.5-27.3c0.5-13.4,8.9-23.9,21.9-26.9c10.6-2.3,21.1-1.2,31.5,2.2
		c3.1,1.1,4.4,2.6,3.8,6C825.9,106.8,825.5,112.5,825,119z"/>
	<path d="M996.2,119.7c0,19.9-0.1,39.9,0.1,59.8c0,4.5-1.2,6-5.7,5.6c-6.3-0.5-14.4,1.9-18.4-1.2c-4.2-3.3-1.2-11.9-1.4-18.1
		c-0.1-35.2,0-70.3-0.3-105.5c0-5.2,1.4-6.8,6.4-6.1c6.3,0.8,14.6-2.7,18.1,1.4c3.1,3.5,1.1,11.7,1.1,17.7
		C996.2,88.9,996.2,104.3,996.2,119.7z"/>
	<path d="M957.6,139.2c0,13.1-0.1,26.3,0.1,39.4c0.1,4.8-0.5,7.2-6.1,6.5c-6.4-0.8-15.1,2.9-18.8-1.5c-3.1-3.7-1.1-12.1-1.1-18.4
		c0-21.9,0.1-44-0.1-66c0-4.1,0.8-5.7,5.2-5.3c5.2,0.4,10.5,0.4,15.7,0c4.1-0.3,5.5,0.8,5.3,5.2
		C957.3,112.5,957.6,125.8,957.6,139.2z"/>
	<path d="M674.2,262.3c2-2.5,2.9-3.8,4-4.8c5.2-4.5,11.2-4.6,17.2-2.3c5.7,2.2,8.3,7.1,8.5,12.8c0.4,12.7,0.3,25.4,0.3,38
		c0,2-0.3,3.4-2.9,3.4c-2.6,0-3.5-0.8-3.5-3.5c0.1-10.4,0.3-20.9,0-31.2c-0.1-5,0-10.8-6.1-13.2c-7.1-3-14.7,1.1-16.4,9.3
		c-2.3,11.2-0.5,22.6-1.1,33.9c-0.1,1.6,1.1,4.1-1.4,4.6c-2.3,0.4-5.6,1.5-5.5-3.3c0.1-23.6,0.1-47.2,0-70.7c0-2.7,1-3.4,3.5-3.5
		c2.7,0,3.4,1.1,3.4,3.5C674.1,243.5,674.2,251.9,674.2,262.3z"/>
	<path d="M489.3,299.5c6,1.9,12,3.8,18.5,3.1c5.2-0.5,9.3-2.9,10.5-8.2c1.2-5.3,0.8-10.6-4.4-13.9c-4-2.6-8.3-4.5-12.5-6.7
		c-7.9-4.2-12-10.5-11.9-19.8c0.3-11.7,6.8-18.5,18.5-18.7c4.8,0,9.4,0.8,13.9,2.9c3.5,1.5,1.1,3.7,0.8,5.7c-0.4,3-1.9,2-3.8,1.4
		c-2.7-1-5.6-1.9-8.5-2.3c-5.7-0.7-11,0.4-13.5,6.5c-2.3,5.7-0.3,12.1,5,15.5c4.2,2.7,8.9,4.5,13.1,7.1c9.1,5.3,12.5,13.9,9.8,24.4
		c-2.2,8.3-9.4,13.6-19.5,13.9c-3.1,0.1-6.3-0.5-9.4-0.8C489.8,309.1,487.3,306.1,489.3,299.5z"/>
	<path d="M566,303.1c-5.5,7-12.3,9-20.2,6.3c-8-2.9-9.4-9.7-9.5-17c-0.1-11-0.1-22.2-0.1-33.4c0-2.3-0.4-4.4,3.3-4.5
		c4,0,3.7,2.3,3.5,4.9c0,10-0.1,19.9,0,30c0.1,9.8,3,14,9.8,14.3c7.4,0.4,12.7-4.4,13.2-13.4c0.7-10.2,0.3-20.4,0.3-30.5
		c0-2.6-0.8-5.5,3.7-5.2c4.5,0.1,3,3.1,3,5.2c0.1,14.3,0.1,28.6-0.1,42.8c0,2.2,2.3,5.7-1.9,6.7C566.1,310.6,567.9,305.7,566,303.1z
		"/>
	<path d="M748.5,303.3c-2.2,2.3-4.4,4.6-7.4,5.9c-10.5,4.2-21.1-1.4-21.9-12.8c-1-12.8-0.4-25.8-0.7-38.7c0-3,1.5-3.1,3.8-3.1
		c3,0,3,1.8,3.1,4c0,11.6,0,23.2,0.3,34.6c0.1,5.6,2.7,9.7,8.7,10.2c6,0.5,10.6-1.9,12.8-7.8c1.2-3.1,1.6-6.5,1.6-10
		c-0.1-8.2-0.3-16.4,0.1-24.5c0.1-2.5-2.6-6.8,3.5-6.7c5.5,0.1,3,4.1,3.1,6.4c0.3,14,0.3,28.1,0,42.1c0,2,2.6,5.7-2.3,6.3
		C748.4,309.9,750.7,305.5,748.5,303.3z"/>
	<path d="M831.1,261.1c6.8-7.1,13.5-9.1,20.7-6.1c7.8,3.3,9,10.1,9,17.4c0,10.4,0.1,20.9,0,31.2c0,2.2,1.6,5.9-3.3,5.6
		c-4.9-0.3-2.9-3.8-2.9-6c-0.3-9.5,0.1-19.1-0.1-28.5c-0.3-9.5-3-13.4-9.5-13.9c-7.5-0.7-12.7,3.7-13.5,12.8
		c-0.8,10-0.3,19.9-0.5,29.9c0,2.2,1.9,5.7-3.1,5.7c-5.3,0.1-3.5-3.7-3.5-6.1c-0.1-13.8-0.1-27.7,0.1-41.4c0-2.3-2.5-6.4,2.3-7.2
		C831.4,254,829.2,258.9,831.1,261.1z"/>
	<path d="M974.1,261.8c3-4.6,7-7.1,11.9-7.9c9.1-1.5,16.9,4.1,17.4,13.6c0.7,12.8,0.3,25.8,0.4,38.7c0,2.3-0.7,3.1-3.1,3.3
		c-2.9,0.1-3.4-1.2-3.3-3.7c0.1-8.9,0-17.7,0-26.6c0-2.5-0.1-4.9-0.3-7.5c-0.3-6.1-3-10.4-9.7-10.8c-6.4-0.4-11,3.1-12.5,10
		c-2.3,11.2-0.5,22.6-1.1,33.9c-0.1,2,1.1,4.6-2.9,4.6c-3.5,0-4-1.5-4-4.5c0.1-15.1,0-30.4,0.1-45.5c0-1.8-1.2-4.2,2-4.8
		s3.7,1.6,4,4C973.4,259.4,973.7,260.3,974.1,261.8z"/>
	<path d="M944.4,79.2c-12.7,0-12.7,0-12.7-12.1c0-11.2,0-11.2,11.6-11.2c14.3,0,14.3,0,14.3,13.9c0,9.3,0,9.3-9.1,9.3
		C947.1,79.2,945.7,79.2,944.4,79.2z"/>
	<path d="M639.2,279.9c0-4.5,0-9,0-13.6c0-2.7,0.5-5.3-3.8-5.5c-3.5-0.1-3.3-3.3-1.1-4.2c5-2.2,6-6.3,6.8-10.8
		c0.4-1.8,0.5-4,3.1-3.5c2.3,0.4,1.8,2.6,1.5,3.8c-1.4,7.5,2.2,9.5,8.9,8.5c2.3-0.4,4.4-0.3,4.2,3.3c-0.1,3.8-2.6,3.3-4.6,2.9
		c-7.5-1.4-9.1,2.2-8.6,8.9c0.5,7.9,0,15.8,0.1,23.7c0.3,7.8,2.6,9.8,10.4,9.8c1.4,0,2.9-0.7,2.7,1.5c0,1.9,0.8,3.8-2,4.9
		c-7.5,3-16.1-1.6-17-10.2c-0.7-6.5-0.1-13.1-0.1-19.6C639.6,279.9,639.4,279.9,639.2,279.9z"/>
	<path d="M776.3,264.1c4-6.4,7.9-10.8,15-10.4c1.8,0.1,4.1,0.4,3.4,3c-0.4,1.8,0.7,4.5-3,5c-11,1.5-15.3,6.4-15.4,17.9
		c-0.1,8.3,0,16.8,0,25.1c0,2.5,0.7,4.9-3.4,4.9c-4.1,0-3.4-2.6-3.4-5c0-14.7-0.1-29.4,0.1-44.2c0-2-1.8-5.5,2.5-5.7
		c4.2-0.4,3,3,3.4,5.2C775.6,260.9,775.9,262,776.3,264.1z"/>
	<path d="M810.2,282.8c0,7.5,0,15,0,22.5c0,2.3,0.3,4.4-3.3,4.2c-3.5-0.1-3.3-2-3.3-4.4c0-15.4,0-30.8,0-46.3c0-2.6,0.1-4.2,3.5-4.2
		c3.8-0.1,3.1,2.3,3.1,4.5C810.2,266.9,810.2,274.8,810.2,282.8z"/>
	<path d="M803,240.1c0-2.7,0.4-5.3,3.7-5.6c3.3-0.1,4,2.3,4.1,5c0.1,2.7-0.5,5.3-3.7,5.6C803.8,245.4,803.3,242.7,803,240.1z"/>
	<path d="M566.1,239.1c0,3-0.8,5.3-3.5,5.5c-3.4,0.1-3.8-2.5-3.8-5.2c0-2.6,1-4.8,3.8-4.6C565.1,234.9,566,237.1,566.1,239.1z"/>
	<path d="M745.1,234.6c3,0.8,3.8,3,3.5,5.7c-0.3,2.6-1.5,4.5-4.2,4.2c-2.9-0.4-3.1-2.9-3.1-5.2C741.3,236.7,742.4,235,745.1,234.6z"
		/>
	<path d="M733.2,239.4c-0.1,2.3-0.3,4.9-3.3,5.2c-3.3,0.3-4.1-2-4.2-4.9c-0.1-2.6,1-4.8,3.7-4.9
		C732.3,234.6,733.2,236.8,733.2,239.4z"/>
	<path d="M550.7,239.4c0,2.3-0.3,4.9-3.3,5c-3.3,0.3-4.1-2.2-4.2-4.9c-0.1-2.6,1.1-4.6,3.7-4.8C549.6,234.6,550.6,236.8,550.7,239.4
		z"/>
	<path d="M618.2,254.8c1.5,1.6,1.1,3.7,0.8,5.5c-0.4,1.9-1.5,1.6-2.2-0.1C618.9,258.8,617.2,256.4,618.2,254.8z"/>
	<path d="M1140,130.9c-2.3-2.9-1.9-6.7-2.9-10c-7.4-28.5-38.4-38.9-60.1-19.8c-10.2,9-13.6,21.1-14.3,34.2
		c-2.2,43.2,30.1,60.8,66.4,47.7c2.5-0.8,3.8-1.9,3.7-4.8c-0.1-6,0-12.1,0-18.8c-3.7,1.5-6.5,3.1-9.7,4.1c-3.3,1.1-6.5,1.8-10,2.3
		c-10.2,1.4-19.2-2.6-22.6-10.1c-2.7-6-2.2-7,4.4-7c14.6-0.1,29-0.1,43.6-0.3c1.9-4.4-0.5-9.1,1.4-13.5
		C1140,133.6,1140,132.3,1140,130.9z M1116.6,129.1c-0.4,2-1.8,1.6-3,1.6c-8.3,0-16.6,0-25.1,0c0.5-4.6,1.1-8.6,3.3-12.3
		c3.5-6,9.4-8,15.7-5.6C1112.5,114.9,1117.6,124.3,1116.6,129.1z"/>
	<path d="M581.9,104.7c-7.6-11-18.7-15.1-31.4-11.9c-6.3,1.6-11,5.6-16.4,12.3c0-11.9,0.1-21.7,0-31.5c-0.1-6.3,2.7-14.9-1.2-18.3
		c-3.8-3.1-12.1-0.5-18.4-1.2c-5.2-0.5-6.4,1.4-6.3,6.4c0.3,37.9,0.1,75.8,0.1,113.7c0,10.9,0,10.9,11.2,10.9
		c12.1,0,12.1,0,12.5-11.6c0-0.7,0.1-1.4,1.1-1.4c12.1,20.6,37.4,18.1,48.5,2.2C594,156.4,594.4,122.8,581.9,104.7z M560.6,155.8
		c-5.6,9-15.4,9.3-21.7,0.8c-6.4-8.7-6.5-25.2-0.3-33.9s16.5-8.5,22.2,0.8c2.5,4,4,9.7,3.8,17.3
		C564.5,144.8,563.8,150.7,560.6,155.8z"/>
	<path d="M501.6,143.6c-0.5-9.1-1-18.1-4-26.9c-4.9-14-14-23.3-29.3-24.7c-15.7-1.4-29,3.8-36.8,18.1c-10,18.5-10.4,38-0.3,56.7
		c9.7,17.9,30.1,24.4,53.7,18.1c9.8-2.6,9.8-2.6,9.8-12.7c0-4.1,0-8.2,0-13.5c-7,4-13.2,6.1-20,7c-11,1.2-19.9-3.4-22.9-11.9
		c-1.4-4-1.2-5.6,3.7-5.5c13.6,0.3,27.3,0,40.9,0.3C500.5,149,501.9,147.8,501.6,143.6z M473.4,130.9c-3.1-0.4-6.3-0.1-9.5-0.1
		c-2,0-4.1,0-6.1,0c-8.5,0-8.9-0.5-6.1-8.5c2.6-7.2,7.9-11.2,14-10.4c6.4,0.8,11,6.4,12,13.8C478.2,129.3,477.9,131.4,473.4,130.9z"
		/>
	<path d="M674.1,143.8c-0.3-6.4-0.5-12.7-1.8-18.9c-4-21-16.4-32.6-34.8-32.9c-20.2-0.3-33.9,11-39,31.9c-1.2,4.9-1.6,9.8-1.6,14.9
		c-0.3,40.2,30.4,56.8,66,44.6c2.5-0.8,4.4-1.8,4.2-5c-0.3-6-0.1-12.1-0.1-18.9c-6.5,3.4-12.8,5.9-19.6,6.7
		c-11.5,1.4-20.4-3.4-23.4-12c-1.2-3.7-0.8-5.3,3.7-5.2c13.6,0.3,27.3,0,40.9,0.1C672.6,148.9,674.2,148.3,674.1,143.8z
		 M647.9,130.9c-3.8,0-7.6,0-11.5,0c-2,0-4.1,0-6.1,0c-8.6,0-8.9-0.4-6.1-8.5c2.6-7.4,8.3-11.3,14.6-10.2c6.8,1.2,12,8.6,11.9,16.1
		C650.6,130.6,649.8,130.9,647.9,130.9z"/>
	<path d="M896.4,300.6c-2.7,0-5.5,0.1-8.2,0c-3-0.3-6.3-0.5-5.9-4.8c0.4-3.5,1.9-6.1,6.4-6.3c14.6-0.5,21-9.5,17-23.7
		c-0.8-3.3-1.6-5.7,3.1-5.5c2.2,0.1,3.3-1,3.1-3.4c-0.1-3-2.3-2.2-4-2.3c-4.2-0.1-8.6,0.1-12.8-0.4c-7.2-1-13.9-0.5-18.1,6.1
		c-4.6,7.2-4.9,15.3-0.4,22.5c2.3,3.8,4,6.1,0.7,10.4c-3,3.7,2.2,9.5,0.5,12c-2.3,3.5-6.7,5.9-7.5,10.8c-1.9,11,5.6,18.1,18.8,18.1
		c5.3,0,10.4-1,14.9-3.8c6.1-4,9.1-12.8,6.5-20.6C908.5,302.7,903.1,300.5,896.4,300.6z M890.7,260.1c6.4,0.1,9.4,4.2,9.4,12.3
		c-0.1,7.9-3.3,11.6-10.1,11.5c-6.1-0.1-9.7-4.4-9.7-11.5C880.3,264.3,884,259.8,890.7,260.1z M899.1,325.4
		c-5.2,2.6-10.9,2.7-16.5,1.1c-4.6-1.4-6-4.9-5.7-9.5c0.4-4.9,2.9-8,7.6-8.9c2.2-0.4,4.5,0,6.7,0V308c1.4,0,2.7,0,4.1,0
		c4.1,0.1,8.3,0.3,9.4,5.6C905.8,318.9,903.9,323,899.1,325.4z"/>
	<path d="M624.7,303.2c0.1-22.5,0.1-45,0.1-67.5c0-2.5,0.1-4.2-3.4-4.2c-3.4,0-3.5,1.6-3.5,4.1c0.1,6.4,0.1,12.7,0.1,19.1
		c0.3,2,2.3,4.4-1.4,5.5c-9.3-10-22.1-8.3-27.4,4c-5.2,12-5.2,24.4,0.1,36.4c4.5,10.4,16.6,13,24.9,6.3c1.4-1.1,1.8-3.3,4-3.3
		c1.5,1.9-0.5,6.8,4.5,5.7C626.6,308.5,624.7,305.2,624.7,303.2z M616.8,294.9c-1.6,6-5.7,8.6-11.5,8.7c-5.5,0.1-8.9-3-10.6-7.9
		c-3-8.9-2.9-17.9,0-26.7c1.6-5.2,5.2-8.6,10.9-8.3c5.6,0.3,9.1,3.3,10.9,8.7c1.4,4.4,1.5,8.9,1.4,13.5
		C618,286.8,618,290.8,616.8,294.9z"/>
	<path d="M932.5,283.7c3.4,0,6.8,0,10.2,0c14.3,0,15.5-1.6,11.6-15.7c-0.3-1.1-0.7-2.2-1.2-3.1c-2.9-6.5-7.6-10.9-15-11
		c-7.2-0.1-12.4,3.5-15.8,9.8c-4.6,8.6-4.6,17.9-3.3,27.1c2.2,15.4,14.3,22.9,29.2,18.4c4.8-1.4,7-3.8,4.8-8.7
		c-3.5,0.8-7.1,1.9-10.6,2.5c-8.6,1.2-14.4-2.9-16.5-11.5C924.3,284,924.5,283.7,932.5,283.7z M933.3,261.6
		c4.5-2.2,8.5-1.2,11.7,2.3c2.6,2.7,3.1,6.5,3.5,10.1c0.4,4-2.7,2.7-4.6,2.9c-2.3,0.1-4.5,0-6.8,0c-0.7,0-1.4,0.1-2,0
		c-3-0.7-7.1,1.9-9-1.8C924.3,272,929.3,263.7,933.3,261.6z"/>
</g>
</svg>
