<?xml version="1.0" encoding="utf-8"?>
<!-- Generator: Adobe Illustrator 28.2.0, SVG Export Plug-In . SVG Version: 6.00 Build 0)  -->
<svg version="1.1" id="Ebene_1" xmlns="http://www.w3.org/2000/svg" xmlns:xlink="http://www.w3.org/1999/xlink" x="0px" y="0px"
	 viewBox="0 0 1200 1200" style="enable-background:new 0 0 1200 1200;" xml:space="preserve">
<style type="text/css">
	.st0{fill-rule:evenodd;clip-rule:evenodd;}
</style>
<g>
	<g>
		<g id="Ebene_x0020_1_00000181083287074576951440000017857076116598098618_">
			<g id="_2748090132080_00000118358876992711157950000006479427865020816020_">
				<path class="st0" d="M624.3,253.6c180.9,0,327.5,146.6,327.5,327.5S805.1,908.6,624.3,908.6S296.8,762,296.8,581.1
					S443.4,253.6,624.3,253.6z M478.7,653.8h-62.8c-23.2,0-41.5-6.8-54.8-20.3c-13.3-13.5-20-31.3-20-53.4c0-21.3,6.3-39,19-53
					c13.6-15,32.3-22.5,56.1-22.5h62.5v34.5H422c-10.6,0-19.6,4.2-27.1,12.7c-7.5,8.4-11.2,18.1-11.2,29.1
					c0,11.1,3.5,20.7,10.6,28.8c7.1,8.1,15.9,12.1,26.5,12.1h57.9V653.8L478.7,653.8z M670.1,578.8c0,26-8.3,45.9-24.8,59.7
					c-15.2,12.7-35.8,19-61.9,19c-26.1,0-46.3-5.8-60.7-17.3c-16.7-13.2-25-33.9-25-62c0-23.5,9-41.9,27.1-55.4
					c16.1-12.1,36-18.2,59.6-18.2c25.9,0,46.7,6.5,62.3,19.5C662.3,537.1,670.1,555.4,670.1,578.8z M625.5,578.6
					c0-12.1-3.8-22.3-11.4-30.5c-7.6-8.2-17.9-12.3-30.9-12.3c-11.9,0-21.7,4.2-29.5,12.6c-7.8,8.3-11.7,18.9-11.7,31.6
					c0,14.6,3.9,26.3,11.8,34.9c7.9,8.7,18,13,30.5,13c14.2,0,24.8-4.5,31.7-13.6C622.4,606.1,625.5,594.1,625.5,578.6z
					 M907.4,653.8h-38.9v-93.3c0-3.6-0.4-6.5-1.2-8.6c-0.8-2.1-2.3-4.4-4.6-6.7c-2.3-2.4-4.6-4.1-6.9-5.2c-2.3-1.1-5-1.6-8.1-1.6
					h-28.5v115.4h-39.4V537.5h-46.1v116.3h-40.6V504.7h159.8c10,0,17.8,0.9,23.6,2.7c5.8,1.8,11.4,5.7,17,11.6
					c4.4,4.8,7.8,9.5,10.2,14.1c2.4,4.6,3.6,9.5,3.6,14.9C907.4,548.1,907.4,653.8,907.4,653.8z"/>
				<path d="M171.2,525.9c16.2-0.6,30.2,3.3,42.2,11.5c13.1,9,19.9,20.8,20.4,35.6l2.5,75L75,653.6L73.9,621l41.8-1.4l-1.5-43.1
					c-0.5-14.3,5.2-26.3,17-36.1C142.4,531.3,155.7,526.5,171.2,525.9z M173.5,559.6c-9.1,0.3-17,3.3-23.9,8.9
					c-6.8,5.6-10.1,12.6-9.8,20.8l1,29.4l68.6-2.3l-1.1-31.1c-0.3-8-3.9-14.3-10.9-19.1C190.4,561.5,182.5,559.3,173.5,559.6z
					 M269.4,415.7L250.9,469c-4.5,13-13.9,22.3-28.4,27.9c-14.4,5.7-28.9,6-43.5,1c-15.9-5.5-27.8-15.4-35.7-29.9
					c-8-14.4-9.7-28-5.3-40.8l17.5-50.7l23.4,8.1l-12.9,37.1c-1.6,4.7-2.6,8.8-2.9,12.3c-0.3,3.6,0.2,7.1,1.6,10.7
					c2.6,6.6,7.6,11.2,15,13.8l22.7-65.5l23.6,8.2l-22.7,65.5c3.5,1.2,6.6,1.8,9.3,1.9c2.7,0,5.6-0.8,8.9-2.5c3.3-1.6,5.9-4,7.9-7.2
					c2-3.2,3.8-7.2,5.6-12.2l13.3-38.3C248.2,408.4,269.4,415.7,269.4,415.7z M310.2,288.9c8.3,5.9,13.5,13.6,15.5,23.2
					c2.1,9.5,0.2,18.4-5.6,26.5l-46,64.5l-17.7-12.6l37.7-52.9c2.7-3.8,4-7.6,3.9-11.5c0-3.9-1.8-7.1-5.3-9.6
					c-8.1-5.8-16.2-3.2-24,7.8l-19.3,27c-4.1,5.8-10.8,9.3-20.2,10.8c-9.3,1.4-17.2-0.1-23.6-4.7c-9-6.4-14.9-13.6-17.5-21.6
					c-3-9.1-1.2-18.2,5.2-27.2l44.3-62.1l18.4,13.2l-39.5,55.3c-1.5,2.1-1.8,4.7-0.9,7.8c0.9,3,2.7,5.5,5.4,7.4
					c2.9,2.1,6.1,2.8,9.6,2.2c3.5-0.6,6.3-2.3,8.4-5.2l20.8-29.1c6.5-9.2,14.4-14.4,23.7-15.9C292.9,280.6,301.8,282.9,310.2,288.9z
					 M431.8,235.1l-39.3,31.5c-14.5,11.7-29.4,16.6-44.5,14.8c-15.1-1.8-28.3-9.6-39.3-23.4c-10.7-13.3-15.6-27.6-14.7-42.7
					c1-16.2,9-30.3,23.9-42.2l39.1-31.4l17.3,21.6l-35.5,28.5c-6.6,5.3-10.1,12.5-10.6,21.5c-0.4,9,2.1,17,7.6,23.8
					c5.6,7,12.6,11.2,21.1,12.7c8.5,1.5,16-0.4,22.7-5.7l36.2-29C415.8,215.1,431.8,235.1,431.8,235.1z M525.4,120.3l25.2,74.6
					l-30.9,10.4l-23.2-68.8c-0.7-2.1-1.6-4.5-2.7-7.2c-1.1-2.8-3.1-4.8-6-6.3c-2.9-1.5-5.6-2.2-8.1-2.1c-2.4,0.1-5.4,0.7-8.7,1.8
					l-25.9,8.8l30,88.9l-30.9,10.4l-51.6-153l30.9-10.4l13.4,39.6l37.7-12.7c6.2-2.1,11.4-3.2,15.6-3.4c4.1-0.2,8.9,0.9,14.3,3.2
					c5.4,2.3,9.7,5.6,12.8,9.7C520.3,107.9,523.1,113.4,525.4,120.3z M629.1,95.7l-35.7,2.7l7.1,93.5l-31.8,2.4L559.6,75l31.8-2.4
					l1.3,16.6c1.4-4.3,3.2-7.8,5.5-10.6c2.3-2.8,5.4-5,9.3-6.7c1.8-0.8,3.7-1.4,5.8-2.1c2-0.6,4.1-1,6.3-1.2
					c2.6-0.2,5.1-0.1,7.5,0.4C627.1,69,629.1,95.7,629.1,95.7z M687.9,61.2l-31.8-2.4l2.2-28.3l31.8,2.4L687.9,61.2z M677.8,193.9
					l-31.8-2.4l9.1-119.3l31.8,2.4L677.8,193.9z M812.7,87.2l-13.8-3.8c-3.4-1-6.6-1.6-9.5-2c-2.9-0.4-5.1,0-6.6,1.4
					c-1.5,1.3-2.6,2.7-3.4,4c-0.8,1.3-1.5,3.1-2.1,5.3l-1.7,5.9l31.2,8.7l-6.4,23.1l-31.2-8.7l-24.8,89l-32.5-9.1l24.8-89l-22.3-6.2
					l6.4-23.1l22.3,6.2l3.8-13.8c2.1-7.7,6.5-13.7,13.1-17.9c4.1-2.7,8.2-4.2,12.2-4.6s8.7,0.1,14.1,1.6l32.9,9.2L812.7,87.2
					L812.7,87.2z M893.3,175.5l-27-15.6l-27.2,47c-2.5,4.3-3,8.6-1.7,13.1c1.7,4.7,5.3,8.7,10.8,11.8l8.2,4.7l-11.7,20.2l-25.8-14.9
					c-7.7-4.5-12.7-11.1-14.9-19.9c-1.3-5.2-1.2-10,0.2-14.6c1.4-4.5,3.7-9.5,6.8-15l28-48.4l-17.6-10.2l12.5-21.6l17.6,10.2
					l20.9-36.2l27.4,15.9l-20.9,36.2l27,15.6C905.8,153.9,893.3,175.5,893.3,175.5z M934.7,338.3l-44.3-42.6
					c-8.1-7.8-13.5-13.7-16-17.6c-4.3-6.7-5.9-13.8-5-21.5c1.1-8.7,4.8-16.4,11.1-22.9l56.6-59l23.2,22.2l-54.9,57.2
					c-2.7,2.8-3.7,6.3-3.2,10.7c0.5,4.3,2.2,7.9,5,10.5l22.7,21.8l64.7-67.3l23.2,22.2L934.7,338.3L934.7,338.3z M995.6,451.1
					l-14.3-28.8l70.6-35c1.8-0.9,3.2-2.1,4.2-3.7c1-1.5,1.9-3.4,2.5-5.6c1-3.9,0.6-7.7-1.2-11.3l-14-28.2l-83.2,41.3l-14.3-28.8
					l107.2-53.2l27.3,55.1c4.9,9.8,7.8,17.2,8.9,22.1c1.8,7.7,0.8,15.1-2.8,22c-4.3,8-10.4,13.9-18.2,17.8L995.6,451.1L995.6,451.1z
					 M1021.5,588.5c-8.1,1-14.8,1.1-20,0.3c-5.2-0.8-10.6-3.2-16.1-7.2c-5.5-4-9.5-8.5-11.8-13.5c-2.4-5-4-11.4-5-19.2l-8.1-68.4
					l25.2-3l6.9,57.7c0.2,2,0.4,3.5,0.5,4.4c0.3,2.6,0.7,4.6,1.3,6.1c0.6,1.5,1.6,3.1,3.2,4.8c0.9,1.1,2.5,2.3,4.6,3.6
					c2.2,1.3,3.9,1.9,5.3,1.7l5.5-0.7l-5-41.6c-1.7-14.6,3.1-27.5,14.5-38.8c10.7-10.6,23.9-16.8,39.7-18.7
					c16.1-1.9,30.5,1.4,43.4,10.1c12.9,8.6,20.2,20.6,22.1,35.9l8.6,72.7L1021.5,588.5L1021.5,588.5z M1039.1,552.4l66.3-8.1
					l-3.4-28.2c-1-8.4-5.1-14.5-12.3-18.3c-7.2-3.8-15.9-5.1-26.2-3.9c-7.8,0.9-14.3,3.8-19.5,8.6c-6.6,6.2-9.2,14.4-8,24.7
					L1039.1,552.4z M1032.8,722.5c-10-1.9-17.9-6.7-23.9-14.5c-5.9-7.8-7.9-16.6-6.1-26.4l14.6-77.9l21.3,4l-12,63.9
					c-0.8,4.5-0.4,8.6,1.3,12.1c1.7,3.5,4.7,5.7,8.9,6.5c9.8,1.8,16-3.9,18.5-17.2l6.1-32.6c1.3-7,5.9-13,13.8-18.3
					c7.9-5.2,15.7-7.1,23.4-5.7c10.9,2,19.2,6.1,25,12.2c6.5,7,8.8,16,6.7,26.9l-14,74.9l-22.3-4.2l12.5-66.8c0.5-2.6-0.3-5-2.5-7.4
					c-2.1-2.4-4.8-3.8-8-4.4c-3.5-0.7-6.7,0-9.7,2.1c-3,2-4.8,4.8-5.4,8.3l-6.6,35.2c-2.1,11.1-7,19.2-14.8,24.4
					C1051.9,722.7,1042.9,724.4,1032.8,722.5z M1041.7,831.6l14-27.9l-48.5-24.4c-4.4-2.2-8.8-2.5-13.2-1c-4.6,2-8.3,5.8-11.2,11.4
					l-4.3,8.5l-20.8-10.5l13.4-26.6c4-8,10.3-13.3,18.9-16.1c5.1-1.6,10-1.8,14.6-0.7c4.6,1.1,9.7,3.1,15.4,5.9l50,25.1l9.1-18.2
					l22.3,11.2l-9.1,18.2l37.4,18.8l-14.2,28.3l-37.4-18.8l-14,27.9C1064,842.8,1041.7,831.6,1041.7,831.6z M884,874.7l37-42.5
					c9-10.3,21.2-15.5,36.8-15.3c15.5,0.1,29.1,5.2,40.7,15.3c12.7,11,20,24.7,22,41c2,16.3-1.4,29.6-10.3,39.9L975,953.5
					l-18.7-16.2l25.8-29.6c3.2-3.7,5.7-7.2,7.3-10.3c1.6-3.2,2.5-6.7,2.5-10.5c0-7.1-2.9-13.2-8.8-18.4l-45.5,52.3l-18.8-16.4
					l45.5-52.3c-2.8-2.4-5.4-4.2-7.9-5.2c-2.5-1-5.5-1.4-9.2-1.1c-3.6,0.3-7,1.5-10,3.7c-3,2.2-6.3,5.3-9.7,9.3l-26.6,30.6
					L884,874.7z M772.5,946.3l74.6-43.6c8.4-4.9,17.2-6.3,26.4-4.1c9.2,2.2,16.3,7.6,21.4,16.2c5.3,9,6.9,18,5,27.1
					c-1.9,9-6.9,15.9-15,20.7l-48.1,28.2l3.3,5.6c1,1.7,2.2,3,3.5,4c1.3,0.9,3.2,1.8,5.5,2.8c3.1,1,5.8,1.3,8.1,0.7
					c2.3-0.6,5.3-1.9,8.9-4l51.5-30.1l13.3,22.7l-44.3,25.9l-8.6,5c-9.7,5.7-17.4,9.1-23.2,10.2c-5.8,1.1-11.3,1.1-16.7-0.2
					c-7-1.8-12.7-4.9-17.2-9.2c-4.5-4.3-9.1-10.5-13.8-18.6C807.1,1005.4,772.5,946.3,772.5,946.3z M813.3,950.8l11.8,20.1
					l35.1-20.5c3.3-1.9,5.6-4.6,6.8-7.8c1.2-3.3,0.9-6.5-1-9.7c-1.6-2.8-4.1-4.4-7.4-4.9c-3.3-0.5-6.5,0.1-9.4,1.8L813.3,950.8z
					 M586.7,979.4l31-3.7l8.8,74.4c0.3,2.9,0.9,5.2,1.7,6.8c0.8,1.6,2.2,3.3,4.3,4.9c2.1,1.7,4.1,2.9,6,3.5c1.9,0.6,4.1,0.8,6.6,0.5
					l22.7-2.7l-10.9-92l31.4-3.7l11,92.7l36.7-4.4l-11-92.7l32.4-3.8l14.1,118.8L644.2,1093c-8,0.9-14.3,1-19.1,0.1
					s-9.6-3.5-14.6-7.6c-4-3.4-7.1-6.8-9.5-10.3c-2.3-3.4-3.8-7.3-4.3-11.6C596.7,1063.6,586.7,979.4,586.7,979.4z"/>
				<path class="st0" d="M253.4,704.3c10.6,11.9,9.5,30.1-2.4,40.6c-11.9,10.6-30.1,9.5-40.6-2.4c-10.6-11.9-9.5-30.1,2.4-40.6
					C224.6,691.3,242.8,692.4,253.4,704.3z"/>
				<path class="st0" d="M178.3,720.3c9.6,10.8,8.6,27.3-2.1,36.8c-10.8,9.6-27.3,8.6-36.8-2.1c-9.6-10.8-8.6-27.3,2.1-36.8
					C152.3,708.6,168.8,709.6,178.3,720.3z"/>
				<g>
					<path class="st0" d="M104.8,736.3c8.7,9.8,7.8,24.7-1.9,33.4c-9.8,8.7-24.7,7.8-33.4-1.9c-8.7-9.8-7.8-24.7,1.9-33.4
						S96.1,726.5,104.8,736.3z"/>
				</g>
				<path class="st0" d="M284.7,794c14.4,6.7,20.6,23.9,13.9,38.3c-6.7,14.4-23.9,20.6-38.3,13.9c-14.4-6.7-20.6-23.9-13.9-38.3
					C253.2,793.4,270.3,787.2,284.7,794z"/>
				<path class="st0" d="M222.1,838.3c13,6.1,18.7,21.6,12.6,34.7c-6.1,13-21.6,18.7-34.7,12.6c-13-6.1-18.7-21.6-12.6-34.7
					C193.6,837.8,209.1,832.2,222.1,838.3z"/>
				<g>
					<path class="st0" d="M160.8,882c11.8,5.5,16.9,19.6,11.4,31.4c-5.5,11.8-19.6,16.9-31.4,11.4c-11.8-5.5-16.9-19.6-11.4-31.4
						C134.9,881.6,149,876.5,160.8,882z"/>
				</g>
				<path class="st0" d="M347.1,871.8c15.6,2.9,26,17.9,23.1,33.5c-2.9,15.6-17.9,26-33.5,23.1c-15.6-2.9-26-17.9-23.1-33.5
					C316.4,879.3,331.4,868.9,347.1,871.8z"/>
				<path class="st0" d="M297.8,930.6c14.2,2.6,23.5,16.2,20.9,30.4c-2.6,14.2-16.2,23.5-30.4,20.9c-14.2-2.6-23.5-16.2-20.9-30.4
					C270,937.3,283.6,928,297.8,930.6z"/>
				<g>
					<path class="st0" d="M249.5,988.3c12.8,2.4,21.3,14.7,19,27.5c-2.4,12.8-14.7,21.3-27.5,19c-12.8-2.4-21.3-14.7-19-27.5
						C224.3,994.5,236.7,986,249.5,988.3z"/>
				</g>
				<path class="st0" d="M437.9,932c15.9-0.7,29.3,11.6,30.1,27.5c0.7,15.9-11.6,29.3-27.5,30.1c-15.9,0.7-29.3-11.6-30.1-27.5
					C409.8,946.2,422.1,932.8,437.9,932z"/>
				<path class="st0" d="M403.1,1000.4c14.4-0.6,26.6,10.5,27.2,24.9c0.6,14.4-10.5,26.6-24.9,27.2c-14.4,0.6-26.6-10.5-27.2-24.9
					C377.6,1013.2,388.7,1001.1,403.1,1000.4z"/>
				<g>
					<path class="st0" d="M369.1,1067.6c13-0.6,24.1,9.5,24.7,22.6c0.6,13-9.5,24.1-22.6,24.7c-13,0.6-24.1-9.5-24.7-22.6
						C346,1079.2,356.1,1068.1,369.1,1067.6L369.1,1067.6z"/>
				</g>
				<path class="st0" d="M520.6,971.2c14-7.6,31.5-2.3,39,11.6c7.6,14,2.3,31.5-11.6,39c-14,7.6-31.5,2.3-39-11.6
					C501.4,996.2,506.6,978.7,520.6,971.2z"/>
				<path class="st0" d="M519,1047.9c12.7-6.9,28.5-2.1,35.4,10.5s2.1,28.5-10.6,35.4c-12.7,6.8-28.5,2.1-35.4-10.6
					C501.6,1070.6,506.3,1054.7,519,1047.9L519,1047.9z"/>
				<g>
					<path class="st0" d="M517.6,1123.1c11.5-6.2,25.8-1.9,32,9.6c6.2,11.5,1.9,25.8-9.6,32c-11.5,6.2-25.8,1.9-32-9.6
						C501.8,1143.7,506.1,1129.3,517.6,1123.1L517.6,1123.1z"/>
				</g>
			</g>
		</g>
	</g>
</g>
</svg>
