<?xml version="1.0" encoding="utf-8"?>
<!-- Generator: Adobe Illustrator 28.2.0, SVG Export Plug-In . SVG Version: 6.00 Build 0)  -->
<svg version="1.1" id="Ebene_1" xmlns="http://www.w3.org/2000/svg" xmlns:xlink="http://www.w3.org/1999/xlink" x="0px" y="0px"
	 viewBox="0 0 589.98 109.95" style="enable-background:new 0 0 589.98 109.95;" xml:space="preserve">
<style type="text/css">
	.st0{fill:#BF45FF;}
	.st1{fill:#FFFFFF;}
</style>
<path class="st0" d="M94.89,0c7.41,0,14.81,0,22.22,0c-2.3,3.86-4.59,7.73-6.89,11.59l-11.1,20.08L88.04,51.76l-11.1,20.08
	c-4.08,6.32-8.16,12.65-12.23,18.97c-3.56-5.73-7.11-11.46-10.67-17.19c3.71-6.62,7.41-13.25,11.12-19.87l11.09-20.09l0.01-0.01
	l11.08-20.07C89.86,9.06,92.38,4.53,94.89,0z"/>
<path class="st1" d="M149.19,0c-6.71,12.15-13.42,24.3-20.12,36.45v0.01c-12.69,24.5-25.38,48.99-38.07,73.49
	c-13.01-24.5-26.02-48.99-39.04-73.49v-0.01C45.53,24.3,39.1,12.15,32.67,0c6.4,0,12.79,0,19.19,0c3.25,6.12,6.49,12.24,9.74,18.36
	l9.63,18.09l9.65,18.09l9.63,18.09l9.65-18.09l9.63-18.09l9.65-18.09c3.22-6.12,6.45-12.24,9.67-18.36C135.81,0,142.5,0,149.19,0z"
	/>
<path class="st0" d="M59.99,72.52c7.11,12.48,14.23,24.96,21.34,37.44c-7.15,0-14.3,0-21.44,0C53.5,97.47,47.11,84.99,40.71,72.52
	c-6.42,12.48-12.85,24.96-19.27,37.44c-7.15,0-14.3,0-21.44,0c10.36-18.5,20.73-37.01,31.09-55.51l-9.64-18.08
	C14.3,24.24,7.15,12.12,0,0c7.15,0.06,14.31,0.13,21.46,0.19l9.63,18.08l9.64,18.09l9.64-18.09C53.6,12.18,56.84,6.09,60.08,0
	c6.84,0,13.68,0,20.53,0c-6.87,12.12-13.75,24.23-20.62,36.35l-9.64,18.08L59.99,72.52z"/>
<g>
	<path class="st1" d="M236.58,6.96c-9-4.6-19.47-6.91-31.4-6.91h-48.04v109.9h48.04c11.93,0,22.4-2.3,31.4-6.91
		c9-4.6,16.01-11.01,21.04-19.23c5.02-8.22,7.54-17.82,7.54-28.81c0-11.09-2.51-20.72-7.54-28.89
		C252.59,17.95,245.58,11.57,236.58,6.96z M239.64,74.78c-3.3,5.65-7.96,10.05-13.97,13.19c-6.02,3.14-13.16,4.71-21.43,4.71h-26.69
		V17.32h26.69c8.27,0,15.41,1.57,21.43,4.71c6.02,3.14,10.68,7.51,13.97,13.11c3.3,5.6,4.95,12.22,4.95,19.86
		C244.58,62.54,242.94,69.13,239.64,74.78z"/>
	<path class="st1" d="M319.16,0.05l-49.46,109.9h21.04l10.88-25.43h54.97l10.92,25.43h21.35L339.26,0.05H319.16z M308.48,68.5
		l20.58-48.1l20.66,48.1H308.48z"/>
	<polygon class="st1" points="476.47,0.05 383.22,0.05 383.22,17.32 419.64,17.32 419.64,109.95 440.05,109.95 440.05,17.32 
		476.47,17.32 	"/>
	<path class="st1" d="M568.63,109.95h21.35L540.37,0.05h-20.1l-49.46,109.9h21.04l10.88-25.43h54.97L568.63,109.95z M509.6,68.5
		l20.58-48.1l20.66,48.1H509.6z"/>
</g>
</svg>
